<svg xmlns="http://www.w3.org/2000/svg" xmlns:xlink="http://www.w3.org/1999/xlink" width="40" zoomAndPan="magnify" viewBox="0 0 30 30.000001" height="40" preserveAspectRatio="xMidYMid meet" version="1.0"><defs><filter x="0%" y="0%" width="100%" height="100%" id="id1"><feColorMatrix values="0 0 0 0 1 0 0 0 0 1 0 0 0 0 1 0 0 0 1 0" color-interpolation-filters="sRGB"/></filter><mask id="id2"><g filter="url(#id1)"><rect x="-3" width="36" fill="rgb(0%, 0%, 0%)" y="-3" height="36.000001" fill-opacity="0.698"/></g></mask><clipPath id="id3"><path d="M 0.0546875 1.125 L 10.214844 1.125 L 10.214844 15.644531 L 0.0546875 15.644531 Z M 0.0546875 1.125 " clip-rule="nonzero"/></clipPath><clipPath id="id4"><rect x="0" width="11" y="0" height="16"/></clipPath></defs><g mask="url(#id2)"><g transform="matrix(1, 0, 0, 1, 10, 6)"><g clip-path="url(#id4)"><g clip-path="url(#id3)"><path fill="rgb(0%, 0%, 0%)" d="M 9.320312 14.324219 C 9.320312 14.4375 9.273438 14.535156 9.199219 14.613281 C 9.121094 14.6875 9.019531 14.734375 8.90625 14.734375 L 1.367188 14.734375 C 1.25 14.734375 1.152344 14.6875 1.074219 14.613281 C 1 14.535156 0.953125 14.4375 0.953125 14.324219 L 0.953125 8.296875 C 0.953125 8.183594 1 8.082031 1.074219 8.007812 C 1.152344 7.929688 1.25 7.886719 1.367188 7.886719 L 8.90625 7.886719 C 9.019531 7.886719 9.121094 7.929688 9.199219 8.007812 C 9.273438 8.085938 9.320312 8.183594 9.320312 8.296875 Z M 2.878906 2.828125 C 3.371094 2.335938 4.046875 2.035156 4.796875 2.035156 L 5.476562 2.035156 C 6.226562 2.035156 6.902344 2.335938 7.394531 2.828125 C 7.882812 3.320312 8.1875 3.992188 8.1875 4.738281 L 8.1875 6.988281 L 2.085938 6.988281 L 2.085938 4.738281 C 2.085938 3.992188 2.390625 3.320312 2.878906 2.828125 Z M 9.085938 7.003906 L 9.085938 4.738281 C 9.082031 2.75 7.46875 1.140625 5.476562 1.140625 L 4.796875 1.140625 C 2.804688 1.140625 1.1875 2.75 1.1875 4.738281 L 1.1875 7.003906 C 0.546875 7.089844 0.0585938 7.636719 0.0546875 8.296875 L 0.0546875 14.324219 C 0.0546875 15.046875 0.640625 15.628906 1.367188 15.628906 L 8.90625 15.628906 C 9.628906 15.628906 10.214844 15.046875 10.21875 14.324219 L 10.21875 8.296875 C 10.214844 7.636719 9.722656 7.089844 9.085938 7.003906 " fill-opacity="1" fill-rule="nonzero"/></g><path fill="rgb(0%, 0%, 0%)" d="M 6.035156 10.488281 C 6.035156 9.992188 5.632812 9.589844 5.136719 9.589844 C 4.640625 9.589844 4.238281 9.992188 4.238281 10.488281 C 4.238281 10.851562 4.457031 11.164062 4.769531 11.304688 L 4.128906 13.027344 L 6.140625 13.027344 L 5.5 11.304688 C 5.816406 11.164062 6.035156 10.851562 6.035156 10.488281 " fill-opacity="1" fill-rule="nonzero"/></g></g></g></svg>