<svg xmlns="http://www.w3.org/2000/svg" xmlns:xlink="http://www.w3.org/1999/xlink" width="40" zoomAndPan="magnify" viewBox="0 0 30 30.000001" height="40" preserveAspectRatio="xMidYMid meet" version="1.0"><defs><clipPath id="id1"><path d="M 4 6.789062 L 25.734375 6.789062 L 25.734375 22 L 4 22 Z M 4 6.789062 " clip-rule="nonzero"/></clipPath></defs><g clip-path="url(#id1)"><path fill="rgb(100%, 100%, 100%)" d="M 5.152344 6.824219 C 5.007812 6.824219 4.867188 6.847656 4.734375 6.902344 C 4.597656 6.957031 4.480469 7.035156 4.375 7.136719 C 4.273438 7.238281 4.195312 7.355469 4.136719 7.492188 C 4.082031 7.625 4.054688 7.765625 4.054688 7.910156 C 4.054688 8.054688 4.082031 8.191406 4.136719 8.328125 C 4.195312 8.460938 4.273438 8.578125 4.375 8.679688 C 4.480469 8.78125 4.597656 8.859375 4.734375 8.914062 C 4.867188 8.96875 5.007812 8.996094 5.152344 8.992188 L 24.652344 8.992188 C 24.796875 8.996094 24.9375 8.96875 25.070312 8.914062 C 25.207031 8.859375 25.324219 8.78125 25.425781 8.679688 C 25.53125 8.578125 25.609375 8.460938 25.667969 8.328125 C 25.722656 8.191406 25.75 8.054688 25.75 7.910156 C 25.75 7.765625 25.722656 7.625 25.667969 7.492188 C 25.609375 7.355469 25.53125 7.238281 25.425781 7.136719 C 25.324219 7.035156 25.207031 6.957031 25.070312 6.902344 C 24.9375 6.847656 24.796875 6.824219 24.652344 6.824219 Z M 5.152344 13.324219 C 5.007812 13.324219 4.867188 13.351562 4.734375 13.402344 C 4.597656 13.457031 4.480469 13.535156 4.375 13.636719 C 4.273438 13.738281 4.195312 13.859375 4.136719 13.992188 C 4.082031 14.125 4.054688 14.265625 4.054688 14.410156 C 4.054688 14.554688 4.082031 14.695312 4.136719 14.828125 C 4.195312 14.960938 4.273438 15.078125 4.375 15.179688 C 4.480469 15.28125 4.597656 15.359375 4.734375 15.414062 C 4.867188 15.46875 5.007812 15.496094 5.152344 15.492188 L 24.652344 15.492188 C 24.796875 15.496094 24.9375 15.46875 25.070312 15.414062 C 25.207031 15.359375 25.324219 15.28125 25.425781 15.179688 C 25.53125 15.078125 25.609375 14.960938 25.667969 14.828125 C 25.722656 14.695312 25.75 14.554688 25.75 14.410156 C 25.75 14.265625 25.722656 14.125 25.667969 13.992188 C 25.609375 13.859375 25.53125 13.738281 25.425781 13.636719 C 25.324219 13.535156 25.207031 13.457031 25.070312 13.402344 C 24.9375 13.351562 24.796875 13.324219 24.652344 13.324219 Z M 5.152344 19.828125 C 5.007812 19.824219 4.867188 19.851562 4.734375 19.90625 C 4.597656 19.957031 4.480469 20.035156 4.375 20.140625 C 4.273438 20.242188 4.195312 20.359375 4.136719 20.492188 C 4.082031 20.625 4.054688 20.765625 4.054688 20.910156 C 4.054688 21.054688 4.082031 21.195312 4.136719 21.328125 C 4.195312 21.460938 4.273438 21.578125 4.375 21.683594 C 4.480469 21.785156 4.597656 21.863281 4.734375 21.914062 C 4.867188 21.96875 5.007812 21.996094 5.152344 21.992188 L 24.652344 21.992188 C 24.796875 21.996094 24.9375 21.96875 25.070312 21.914062 C 25.207031 21.863281 25.324219 21.785156 25.425781 21.683594 C 25.53125 21.578125 25.609375 21.460938 25.667969 21.328125 C 25.722656 21.195312 25.75 21.054688 25.75 20.910156 C 25.75 20.765625 25.722656 20.625 25.667969 20.492188 C 25.609375 20.359375 25.53125 20.242188 25.425781 20.140625 C 25.324219 20.035156 25.207031 19.957031 25.070312 19.90625 C 24.9375 19.851562 24.796875 19.824219 24.652344 19.828125 Z M 5.152344 19.828125 " fill-opacity="1" fill-rule="nonzero"/></g></svg>